<?xml version="1.0" encoding="utf-8"?>
<!-- Generator: Adobe Illustrator 18.0.0, SVG Export Plug-In . SVG Version: 6.00 Build 0)  -->
<!DOCTYPE svg PUBLIC "-//W3C//DTD SVG 1.1//EN" "http://www.w3.org/Graphics/SVG/1.1/DTD/svg11.dtd">
<svg version="1.1" id="Layer_1" xmlns:ev="http://www.w3.org/2001/xml-events"
	 xmlns="http://www.w3.org/2000/svg" xmlns:xlink="http://www.w3.org/1999/xlink" x="0px" y="0px" width="400px" height="400px"
	 viewBox="0 0 400 400" enable-background="new 0 0 400 400" xml:space="preserve">
<path fill="#FFFFFF" d="M335.6,361.5L315.1,341c36.6-36.6,58.6-85,58.6-140.7c0-54.2-22-104-58.6-140.7l20.5-20.5
	c41,41,67.4,98.2,67.4,161.2S378.1,320.5,335.6,361.5z M296,320.5L275.5,300c24.9-26.4,41-61.5,41-99.6s-16.1-74.7-41-99.6l20.5-19
	c30.8,30.8,49.8,73.3,49.8,120.1S326.8,289.7,296,320.5z M255,281l-20.5-20.5c14.7-16.1,24.9-36.6,24.9-60.1s-8.8-44-24.9-60.1
	l20.5-20.5c20.5,20.5,33.7,48.4,33.7,80.6S275.5,260.4,255,281z M3,286.8V115.4h114.3l86.4-85v341.4l-86.4-85
	C117.3,286.8,3,286.8,3,286.8z"/>
</svg>
