<?xml version="1.0" encoding="utf-8"?>
<!-- Generator: Adobe Illustrator 18.0.0, SVG Export Plug-In . SVG Version: 6.00 Build 0)  -->
<!DOCTYPE svg PUBLIC "-//W3C//DTD SVG 1.1//EN" "http://www.w3.org/Graphics/SVG/1.1/DTD/svg11.dtd">
<svg version="1.1" id="Layer_1" xmlns:ev="http://www.w3.org/2001/xml-events"
	 xmlns="http://www.w3.org/2000/svg" xmlns:xlink="http://www.w3.org/1999/xlink" x="0px" y="0px" width="400px" height="400px"
	 viewBox="0 0 400 400" enable-background="new 0 0 400 400" xml:space="preserve">
<path opacity="0.5" fill="#FFFFFF"  d="M47.8,183c-6.9,5.2-17.3,19-17.3,32.9c0,12.1,5.2,26,32.9,32.9c5.2,1.7,10.4,1.7,15.6,1.7
	c6.9,0,12.1,0,19-1.7c5.2,0,10.4-1.7,13.9-1.7c12.1,0,20.8,3.5,29.4,20.8c1.7,5.2,5.2,20.8-1.7,58.9c-5.2,26-6.9,51.9,22.5,69.3
	c8.7,5.2,19,6.9,24.2,3.5c6.9-3.5,10.4-10.4,10.4-19c0-3.5,0-5.2,0-10.4c0-12.1-1.7-32.9,17.3-64.1c26-27.7,39.8-55.4,41.6-60.6
	c12.1-6.9,24.2-13.9,34.6-19c12.1-5.2,24.2-12.1,38.1-20.8h48.5h5.2v-161h1.7V34.1H382h-15.6H330l-26-6.9
	c-41.6-20.8-91.8-26-126.4-26c-20.8,0-36.4,1.7-38.1,1.7s-3.5,0-5.2,0c-13.9,0-24.2,3.5-32.9,12.1C85.9,27.2,80.7,48,79,56.6
	c-10.4,3.5-19,10.4-24.2,22.5c-5.2,13.9-1.7,26,1.7,34.6c-10.4,5.2-19,13.9-20.8,24.2c-5.2,22.5,10.4,43.3,10.4,43.3
	C47.8,181.3,47.8,183,47.8,183z"/>
</svg>
