<?xml version="1.0" encoding="utf-8"?>
<!-- Generator: Adobe Illustrator 18.0.0, SVG Export Plug-In . SVG Version: 6.00 Build 0)  -->
<!DOCTYPE svg PUBLIC "-//W3C//DTD SVG 1.1//EN" "http://www.w3.org/Graphics/SVG/1.1/DTD/svg11.dtd">
<svg version="1.1" id="Layer_1" xmlns:ev="http://www.w3.org/2001/xml-events"
	 xmlns="http://www.w3.org/2000/svg" xmlns:xlink="http://www.w3.org/1999/xlink" x="0px" y="0px" width="400px" height="400px"
	 viewBox="0 0 400 400" enable-background="new 0 0 400 400" xml:space="preserve">
<path opacity="0.5" fill="#FFFFFF" d="M367.6,219.1c6.9-5.2,17.2-18.9,17.2-32.6c0-12-5.2-25.8-32.6-32.6c-5.2-1.7-10.3-1.7-15.5-1.7
	c-6.9,0-12,0-18.9,1.7c-5.2,0-10.3,1.7-13.7,1.7c-12,0-20.6-3.4-29.2-20.6c-1.7-5.2-5.2-20.6,1.7-58.4c5.2-25.8,6.9-51.5-22.3-68.7
	c-10.3-6.9-20.6-8.6-25.8-5.2c-6.9,3.4-10.3,10.3-10.3,18.9c0,3.4,0,5.2,0,10.3c0,12,1.7,32.6-17.2,63.5
	c-25.8,27.5-39.5,54.9-41.2,60.1c-12,6.9-24,13.7-34.3,18.9c-12,5.2-24,12-37.8,20.6H39.7H29.4v161.4l0,0v12h1.7h15.5h36.1l25.8,6.9
	c41.2,20.6,91,25.8,125.3,25.8c20.6,0,36.1-1.7,37.8-1.7s3.4,0,6.9,0c13.7,0,24-3.4,32.6-12c15.5-12,20.6-32.6,22.3-41.2
	c13.7-5.2,22.3-13.7,25.8-24c5.2-13.7,1.7-25.8-1.7-34.3c12-6.9,18.9-15.5,22.3-25.8C384.8,239.7,369.3,219.1,367.6,219.1
	C369.3,220.8,367.6,219.1,367.6,219.1z"/>
</svg>
